<svg width="624" height="48" viewBox="0 0 624 48" fill="none" xmlns="http://www.w3.org/2000/svg">
<g filter="url(#filter0_i_1329_4186)">
<rect width="624" height="48" rx="8" fill="#F0F1F1"/>
<path d="M17.8864 30H16.4091L20.6818 18.3636H22.1364L26.4091 30H24.9318L21.4545 20.2045H21.3636L17.8864 30ZM18.4318 25.4545H24.3864V26.7045H18.4318V25.4545ZM31.3352 30.1818C30.608 30.1818 29.9659 29.9981 29.4091 29.6307C28.8523 29.2595 28.4167 28.7367 28.1023 28.0625C27.7879 27.3845 27.6307 26.5833 27.6307 25.6591C27.6307 24.7424 27.7879 23.947 28.1023 23.2727C28.4167 22.5985 28.8542 22.0777 29.4148 21.7102C29.9754 21.3428 30.6231 21.1591 31.358 21.1591C31.9261 21.1591 32.375 21.2538 32.7045 21.4432C33.0379 21.6288 33.2917 21.8409 33.4659 22.0795C33.6439 22.3144 33.7822 22.5076 33.8807 22.6591H33.9943V18.3636H35.3352V30H34.0398V28.6591H33.8807C33.7822 28.8182 33.642 29.0189 33.4602 29.2614C33.2784 29.5 33.0189 29.714 32.6818 29.9034C32.3447 30.089 31.8958 30.1818 31.3352 30.1818ZM31.517 28.9773C32.0549 28.9773 32.5095 28.8371 32.8807 28.5568C33.2519 28.2727 33.5341 27.8807 33.7273 27.3807C33.9205 26.8769 34.017 26.2955 34.017 25.6364C34.017 24.9848 33.9223 24.4148 33.733 23.9261C33.5436 23.4337 33.2633 23.0511 32.892 22.7784C32.5208 22.5019 32.0625 22.3636 31.517 22.3636C30.9489 22.3636 30.4754 22.5095 30.0966 22.8011C29.7216 23.089 29.4394 23.4811 29.25 23.9773C29.0644 24.4697 28.9716 25.0227 28.9716 25.6364C28.9716 26.2576 29.0663 26.822 29.2557 27.3295C29.4489 27.8333 29.733 28.2348 30.108 28.5341C30.4867 28.8295 30.9564 28.9773 31.517 28.9773ZM41.2727 30.1818C40.5455 30.1818 39.9034 29.9981 39.3466 29.6307C38.7898 29.2595 38.3542 28.7367 38.0398 28.0625C37.7254 27.3845 37.5682 26.5833 37.5682 25.6591C37.5682 24.7424 37.7254 23.947 38.0398 23.2727C38.3542 22.5985 38.7917 22.0777 39.3523 21.7102C39.9129 21.3428 40.5606 21.1591 41.2955 21.1591C41.8636 21.1591 42.3125 21.2538 42.642 21.4432C42.9754 21.6288 43.2292 21.8409 43.4034 22.0795C43.5814 22.3144 43.7197 22.5076 43.8182 22.6591H43.9318V18.3636H45.2727V30H43.9773V28.6591H43.8182C43.7197 28.8182 43.5795 29.0189 43.3977 29.2614C43.2159 29.5 42.9564 29.714 42.6193 29.9034C42.2822 30.089 41.8333 30.1818 41.2727 30.1818ZM41.4545 28.9773C41.9924 28.9773 42.447 28.8371 42.8182 28.5568C43.1894 28.2727 43.4716 27.8807 43.6648 27.3807C43.858 26.8769 43.9545 26.2955 43.9545 25.6364C43.9545 24.9848 43.8598 24.4148 43.6705 23.9261C43.4811 23.4337 43.2008 23.0511 42.8295 22.7784C42.4583 22.5019 42 22.3636 41.4545 22.3636C40.8864 22.3636 40.4129 22.5095 40.0341 22.8011C39.6591 23.089 39.3769 23.4811 39.1875 23.9773C39.0019 24.4697 38.9091 25.0227 38.9091 25.6364C38.9091 26.2576 39.0038 26.822 39.1932 27.3295C39.3864 27.8333 39.6705 28.2348 40.0455 28.5341C40.4242 28.8295 40.8939 28.9773 41.4545 28.9773ZM47.9148 30V21.2727H49.2557V30H47.9148ZM48.5966 19.8182C48.3352 19.8182 48.1098 19.7292 47.9205 19.5511C47.7348 19.3731 47.642 19.1591 47.642 18.9091C47.642 18.6591 47.7348 18.4451 47.9205 18.267C48.1098 18.089 48.3352 18 48.5966 18C48.858 18 49.0814 18.089 49.267 18.267C49.4564 18.4451 49.5511 18.6591 49.5511 18.9091C49.5511 19.1591 49.4564 19.3731 49.267 19.5511C49.0814 19.7292 48.858 19.8182 48.5966 19.8182ZM55.5071 21.2727V22.4091H50.9844V21.2727H55.5071ZM52.3026 19.1818H53.6435V27.5C53.6435 27.8788 53.6984 28.1629 53.8082 28.3523C53.9219 28.5379 54.0658 28.6629 54.2401 28.7273C54.4181 28.7879 54.6056 28.8182 54.8026 28.8182C54.9503 28.8182 55.0715 28.8106 55.1662 28.7955C55.2609 28.7765 55.3366 28.7614 55.3935 28.75L55.6662 29.9545C55.5753 29.9886 55.4484 30.0227 55.2855 30.0568C55.1226 30.0947 54.9162 30.1136 54.6662 30.1136C54.2874 30.1136 53.9162 30.0322 53.5526 29.8693C53.1927 29.7064 52.8935 29.4583 52.6548 29.125C52.42 28.7917 52.3026 28.3712 52.3026 27.8636V19.1818ZM57.5241 30V21.2727H58.8651V30H57.5241ZM58.206 19.8182C57.9446 19.8182 57.7192 19.7292 57.5298 19.5511C57.3442 19.3731 57.2514 19.1591 57.2514 18.9091C57.2514 18.6591 57.3442 18.4451 57.5298 18.267C57.7192 18.089 57.9446 18 58.206 18C58.4673 18 58.6908 18.089 58.8764 18.267C59.0658 18.4451 59.1605 18.6591 59.1605 18.9091C59.1605 19.1591 59.0658 19.3731 58.8764 19.5511C58.6908 19.7292 58.4673 19.8182 58.206 19.8182ZM64.8665 30.1818C64.0786 30.1818 63.3873 29.9943 62.7926 29.6193C62.2017 29.2443 61.7396 28.7197 61.4062 28.0455C61.0767 27.3712 60.9119 26.5833 60.9119 25.6818C60.9119 24.7727 61.0767 23.9792 61.4062 23.3011C61.7396 22.6231 62.2017 22.0966 62.7926 21.7216C63.3873 21.3466 64.0786 21.1591 64.8665 21.1591C65.6544 21.1591 66.3438 21.3466 66.9347 21.7216C67.5294 22.0966 67.9915 22.6231 68.321 23.3011C68.6544 23.9792 68.821 24.7727 68.821 25.6818C68.821 26.5833 68.6544 27.3712 68.321 28.0455C67.9915 28.7197 67.5294 29.2443 66.9347 29.6193C66.3438 29.9943 65.6544 30.1818 64.8665 30.1818ZM64.8665 28.9773C65.465 28.9773 65.9574 28.8239 66.3438 28.517C66.7301 28.2102 67.0161 27.8068 67.2017 27.3068C67.3873 26.8068 67.4801 26.2652 67.4801 25.6818C67.4801 25.0985 67.3873 24.5549 67.2017 24.0511C67.0161 23.5473 66.7301 23.1402 66.3438 22.8295C65.9574 22.5189 65.465 22.3636 64.8665 22.3636C64.268 22.3636 63.7756 22.5189 63.3892 22.8295C63.0028 23.1402 62.7169 23.5473 62.5312 24.0511C62.3456 24.5549 62.2528 25.0985 62.2528 25.6818C62.2528 26.2652 62.3456 26.8068 62.5312 27.3068C62.7169 27.8068 63.0028 28.2102 63.3892 28.517C63.7756 28.8239 64.268 28.9773 64.8665 28.9773ZM72.2088 24.75V30H70.8679V21.2727H72.1634V22.6364H72.277C72.4815 22.1932 72.7921 21.8371 73.2088 21.5682C73.6255 21.2955 74.1634 21.1591 74.8224 21.1591C75.4134 21.1591 75.9304 21.2803 76.3736 21.5227C76.8168 21.7614 77.1615 22.125 77.4077 22.6136C77.6539 23.0985 77.777 23.7121 77.777 24.4545V30H76.4361V24.5455C76.4361 23.8598 76.258 23.3258 75.902 22.9432C75.5459 22.5568 75.0573 22.3636 74.4361 22.3636C74.008 22.3636 73.6255 22.4564 73.2884 22.642C72.955 22.8277 72.6918 23.0985 72.4986 23.4545C72.3054 23.8106 72.2088 24.2424 72.2088 24.75ZM82.7955 30.2045C82.2424 30.2045 81.7405 30.1004 81.2898 29.892C80.839 29.6799 80.4811 29.375 80.2159 28.9773C79.9508 28.5758 79.8182 28.0909 79.8182 27.5227C79.8182 27.0227 79.9167 26.6174 80.1136 26.3068C80.3106 25.9924 80.5739 25.7462 80.9034 25.5682C81.233 25.3902 81.5966 25.2576 81.9943 25.1705C82.3958 25.0795 82.7992 25.0076 83.2045 24.9545C83.7348 24.8864 84.1648 24.8352 84.4943 24.8011C84.8277 24.7633 85.0701 24.7008 85.2216 24.6136C85.3769 24.5265 85.4545 24.375 85.4545 24.1591V24.1136C85.4545 23.553 85.3011 23.1174 84.9943 22.8068C84.6913 22.4962 84.2311 22.3409 83.6136 22.3409C82.9735 22.3409 82.4716 22.4811 82.108 22.7614C81.7443 23.0417 81.4886 23.3409 81.3409 23.6591L80.0682 23.2045C80.2955 22.6742 80.5985 22.2614 80.9773 21.9659C81.3598 21.6667 81.7765 21.4583 82.2273 21.3409C82.6818 21.2197 83.1288 21.1591 83.5682 21.1591C83.8485 21.1591 84.1705 21.1932 84.5341 21.2614C84.9015 21.3258 85.2557 21.4602 85.5966 21.6648C85.9413 21.8693 86.2273 22.178 86.4545 22.5909C86.6818 23.0038 86.7955 23.5568 86.7955 24.25V30H85.4545V28.8182H85.3864C85.2955 29.0076 85.1439 29.2102 84.9318 29.4261C84.7197 29.642 84.4375 29.8258 84.0852 29.9773C83.733 30.1288 83.303 30.2045 82.7955 30.2045ZM83 29C83.5303 29 83.9773 28.8958 84.3409 28.6875C84.7083 28.4792 84.9848 28.2102 85.1705 27.8807C85.3598 27.5511 85.4545 27.2045 85.4545 26.8409V25.6136C85.3977 25.6818 85.2727 25.7443 85.0795 25.8011C84.8902 25.8542 84.6705 25.9015 84.4205 25.9432C84.1742 25.9811 83.9337 26.0152 83.6989 26.0455C83.4678 26.072 83.2803 26.0947 83.1364 26.1136C82.7879 26.1591 82.4621 26.233 82.1591 26.3352C81.8598 26.4337 81.6174 26.5833 81.4318 26.7841C81.25 26.9811 81.1591 27.25 81.1591 27.5909C81.1591 28.0568 81.3314 28.4091 81.6761 28.6477C82.0246 28.8826 82.4659 29 83 29ZM90.5838 18.3636V30H89.2429V18.3636H90.5838ZM100.835 30.1818C100.108 30.1818 99.4659 29.9981 98.9091 29.6307C98.3523 29.2595 97.9167 28.7367 97.6023 28.0625C97.2879 27.3845 97.1307 26.5833 97.1307 25.6591C97.1307 24.7424 97.2879 23.947 97.6023 23.2727C97.9167 22.5985 98.3542 22.0777 98.9148 21.7102C99.4754 21.3428 100.123 21.1591 100.858 21.1591C101.426 21.1591 101.875 21.2538 102.205 21.4432C102.538 21.6288 102.792 21.8409 102.966 22.0795C103.144 22.3144 103.282 22.5076 103.381 22.6591H103.494V18.3636H104.835V30H103.54V28.6591H103.381C103.282 28.8182 103.142 29.0189 102.96 29.2614C102.778 29.5 102.519 29.714 102.182 29.9034C101.845 30.089 101.396 30.1818 100.835 30.1818ZM101.017 28.9773C101.555 28.9773 102.009 28.8371 102.381 28.5568C102.752 28.2727 103.034 27.8807 103.227 27.3807C103.42 26.8769 103.517 26.2955 103.517 25.6364C103.517 24.9848 103.422 24.4148 103.233 23.9261C103.044 23.4337 102.763 23.0511 102.392 22.7784C102.021 22.5019 101.563 22.3636 101.017 22.3636C100.449 22.3636 99.9754 22.5095 99.5966 22.8011C99.2216 23.089 98.9394 23.4811 98.75 23.9773C98.5644 24.4697 98.4716 25.0227 98.4716 25.6364C98.4716 26.2576 98.5663 26.822 98.7557 27.3295C98.9489 27.8333 99.233 28.2348 99.608 28.5341C99.9867 28.8295 100.456 28.9773 101.017 28.9773ZM111.136 30.1818C110.295 30.1818 109.57 29.9962 108.96 29.625C108.354 29.25 107.886 28.7273 107.557 28.0568C107.231 27.3826 107.068 26.5985 107.068 25.7045C107.068 24.8106 107.231 24.0227 107.557 23.3409C107.886 22.6553 108.345 22.1212 108.932 21.7386C109.523 21.3523 110.212 21.1591 111 21.1591C111.455 21.1591 111.903 21.2348 112.347 21.3864C112.79 21.5379 113.193 21.7841 113.557 22.125C113.92 22.4621 114.21 22.9091 114.426 23.4659C114.642 24.0227 114.75 24.7083 114.75 25.5227V26.0909H108.023V24.9318H113.386C113.386 24.4394 113.288 24 113.091 23.6136C112.898 23.2273 112.621 22.9223 112.261 22.6989C111.905 22.4754 111.485 22.3636 111 22.3636C110.466 22.3636 110.004 22.4962 109.614 22.7614C109.227 23.0227 108.93 23.3636 108.722 23.7841C108.513 24.2045 108.409 24.6553 108.409 25.1364V25.9091C108.409 26.5682 108.523 27.1269 108.75 27.5852C108.981 28.0398 109.301 28.3864 109.71 28.625C110.119 28.8598 110.595 28.9773 111.136 28.9773C111.489 28.9773 111.807 28.928 112.091 28.8295C112.379 28.7273 112.627 28.5758 112.835 28.375C113.044 28.1705 113.205 27.9167 113.318 27.6136L114.614 27.9773C114.477 28.4167 114.248 28.803 113.926 29.1364C113.604 29.4659 113.206 29.7235 112.733 29.9091C112.259 30.0909 111.727 30.1818 111.136 30.1818ZM122.972 23.2273L121.767 23.5682C121.691 23.3674 121.58 23.1723 121.432 22.983C121.288 22.7898 121.091 22.6307 120.841 22.5057C120.591 22.3807 120.271 22.3182 119.881 22.3182C119.347 22.3182 118.902 22.4413 118.545 22.6875C118.193 22.9299 118.017 23.2386 118.017 23.6136C118.017 23.947 118.138 24.2102 118.381 24.4034C118.623 24.5966 119.002 24.7576 119.517 24.8864L120.812 25.2045C121.593 25.3939 122.174 25.6837 122.557 26.0739C122.939 26.4602 123.131 26.9583 123.131 27.5682C123.131 28.0682 122.987 28.5152 122.699 28.9091C122.415 29.303 122.017 29.6136 121.506 29.8409C120.994 30.0682 120.4 30.1818 119.722 30.1818C118.831 30.1818 118.095 29.9886 117.511 29.6023C116.928 29.2159 116.559 28.6515 116.403 27.9091L117.676 27.5909C117.797 28.0606 118.027 28.4129 118.364 28.6477C118.705 28.8826 119.15 29 119.699 29C120.324 29 120.82 28.8674 121.188 28.6023C121.559 28.3333 121.744 28.0114 121.744 27.6364C121.744 27.3333 121.638 27.0795 121.426 26.875C121.214 26.6667 120.888 26.5114 120.449 26.4091L118.994 26.0682C118.195 25.8788 117.608 25.5852 117.233 25.1875C116.862 24.786 116.676 24.2841 116.676 23.6818C116.676 23.1894 116.814 22.7538 117.091 22.375C117.371 21.9962 117.752 21.6989 118.233 21.483C118.718 21.267 119.267 21.1591 119.881 21.1591C120.744 21.1591 121.422 21.3485 121.915 21.7273C122.411 22.1061 122.763 22.6061 122.972 23.2273ZM128.695 30.1818C127.876 30.1818 127.172 29.9886 126.581 29.6023C125.99 29.2159 125.536 28.6837 125.217 28.0057C124.899 27.3277 124.74 26.553 124.74 25.6818C124.74 24.7955 124.903 24.0133 125.229 23.3352C125.558 22.6534 126.017 22.1212 126.604 21.7386C127.195 21.3523 127.884 21.1591 128.672 21.1591C129.286 21.1591 129.839 21.2727 130.331 21.5C130.823 21.7273 131.227 22.0455 131.541 22.4545C131.856 22.8636 132.051 23.3409 132.126 23.8864H130.786C130.683 23.4886 130.456 23.1364 130.104 22.8295C129.755 22.5189 129.286 22.3636 128.695 22.3636C128.172 22.3636 127.714 22.5 127.32 22.7727C126.929 23.0417 126.625 23.4223 126.405 23.9148C126.189 24.4034 126.081 24.9773 126.081 25.6364C126.081 26.3106 126.187 26.8977 126.399 27.3977C126.615 27.8977 126.918 28.286 127.308 28.5625C127.702 28.839 128.164 28.9773 128.695 28.9773C129.043 28.9773 129.359 28.9167 129.643 28.7955C129.928 28.6742 130.168 28.5 130.365 28.2727C130.562 28.0455 130.702 27.7727 130.786 27.4545H132.126C132.051 27.9697 131.863 28.4337 131.564 28.8466C131.268 29.2557 130.876 29.5814 130.388 29.8239C129.903 30.0625 129.339 30.1818 128.695 30.1818ZM134.087 30V21.2727H135.382V22.5909H135.473C135.632 22.1591 135.92 21.8087 136.337 21.5398C136.753 21.2708 137.223 21.1364 137.746 21.1364C137.844 21.1364 137.967 21.1383 138.115 21.142C138.263 21.1458 138.375 21.1515 138.45 21.1591V22.5227C138.405 22.5114 138.301 22.4943 138.138 22.4716C137.979 22.4451 137.81 22.4318 137.632 22.4318C137.208 22.4318 136.829 22.5208 136.496 22.6989C136.166 22.8731 135.905 23.1155 135.712 23.4261C135.522 23.733 135.428 24.0833 135.428 24.4773V30H134.087ZM140.04 30V21.2727H141.381V30H140.04ZM140.722 19.8182C140.46 19.8182 140.235 19.7292 140.045 19.5511C139.86 19.3731 139.767 19.1591 139.767 18.9091C139.767 18.6591 139.86 18.4451 140.045 18.267C140.235 18.089 140.46 18 140.722 18C140.983 18 141.206 18.089 141.392 18.267C141.581 18.4451 141.676 18.6591 141.676 18.9091C141.676 19.1591 141.581 19.3731 141.392 19.5511C141.206 19.7292 140.983 19.8182 140.722 19.8182ZM143.837 33.2727V21.2727H145.132V22.6591H145.291C145.39 22.5076 145.526 22.3144 145.7 22.0795C145.878 21.8409 146.132 21.6288 146.462 21.4432C146.795 21.2538 147.246 21.1591 147.814 21.1591C148.549 21.1591 149.196 21.3428 149.757 21.7102C150.318 22.0777 150.755 22.5985 151.07 23.2727C151.384 23.947 151.541 24.7424 151.541 25.6591C151.541 26.5833 151.384 27.3845 151.07 28.0625C150.755 28.7367 150.32 29.2595 149.763 29.6307C149.206 29.9981 148.564 30.1818 147.837 30.1818C147.276 30.1818 146.827 30.089 146.49 29.9034C146.153 29.714 145.893 29.5 145.712 29.2614C145.53 29.0189 145.39 28.8182 145.291 28.6591H145.178V33.2727H143.837ZM145.155 25.6364C145.155 26.2955 145.251 26.8769 145.445 27.3807C145.638 27.8807 145.92 28.2727 146.291 28.5568C146.662 28.8371 147.117 28.9773 147.655 28.9773C148.215 28.9773 148.683 28.8295 149.058 28.5341C149.437 28.2348 149.721 27.8333 149.911 27.3295C150.104 26.822 150.2 26.2576 150.2 25.6364C150.2 25.0227 150.106 24.4697 149.916 23.9773C149.731 23.4811 149.448 23.089 149.07 22.8011C148.695 22.5095 148.223 22.3636 147.655 22.3636C147.109 22.3636 146.651 22.5019 146.28 22.7784C145.909 23.0511 145.628 23.4337 145.439 23.9261C145.25 24.4148 145.155 24.9848 145.155 25.6364ZM157.382 21.2727V22.4091H152.859V21.2727H157.382ZM154.178 19.1818H155.518V27.5C155.518 27.8788 155.573 28.1629 155.683 28.3523C155.797 28.5379 155.941 28.6629 156.115 28.7273C156.293 28.7879 156.481 28.8182 156.678 28.8182C156.825 28.8182 156.946 28.8106 157.041 28.7955C157.136 28.7765 157.212 28.7614 157.268 28.75L157.541 29.9545C157.45 29.9886 157.323 30.0227 157.161 30.0568C156.998 30.0947 156.791 30.1136 156.541 30.1136C156.162 30.1136 155.791 30.0322 155.428 29.8693C155.068 29.7064 154.768 29.4583 154.53 29.125C154.295 28.7917 154.178 28.3712 154.178 27.8636V19.1818ZM159.399 30V21.2727H160.74V30H159.399ZM160.081 19.8182C159.82 19.8182 159.594 19.7292 159.405 19.5511C159.219 19.3731 159.126 19.1591 159.126 18.9091C159.126 18.6591 159.219 18.4451 159.405 18.267C159.594 18.089 159.82 18 160.081 18C160.342 18 160.566 18.089 160.751 18.267C160.941 18.4451 161.036 18.6591 161.036 18.9091C161.036 19.1591 160.941 19.3731 160.751 19.5511C160.566 19.7292 160.342 19.8182 160.081 19.8182ZM166.741 30.1818C165.954 30.1818 165.262 29.9943 164.668 29.6193C164.077 29.2443 163.615 28.7197 163.281 28.0455C162.952 27.3712 162.787 26.5833 162.787 25.6818C162.787 24.7727 162.952 23.9792 163.281 23.3011C163.615 22.6231 164.077 22.0966 164.668 21.7216C165.262 21.3466 165.954 21.1591 166.741 21.1591C167.529 21.1591 168.219 21.3466 168.81 21.7216C169.404 22.0966 169.866 22.6231 170.196 23.3011C170.529 23.9792 170.696 24.7727 170.696 25.6818C170.696 26.5833 170.529 27.3712 170.196 28.0455C169.866 28.7197 169.404 29.2443 168.81 29.6193C168.219 29.9943 167.529 30.1818 166.741 30.1818ZM166.741 28.9773C167.34 28.9773 167.832 28.8239 168.219 28.517C168.605 28.2102 168.891 27.8068 169.077 27.3068C169.262 26.8068 169.355 26.2652 169.355 25.6818C169.355 25.0985 169.262 24.5549 169.077 24.0511C168.891 23.5473 168.605 23.1402 168.219 22.8295C167.832 22.5189 167.34 22.3636 166.741 22.3636C166.143 22.3636 165.651 22.5189 165.264 22.8295C164.878 23.1402 164.592 23.5473 164.406 24.0511C164.221 24.5549 164.128 25.0985 164.128 25.6818C164.128 26.2652 164.221 26.8068 164.406 27.3068C164.592 27.8068 164.878 28.2102 165.264 28.517C165.651 28.8239 166.143 28.9773 166.741 28.9773ZM174.084 24.75V30H172.743V21.2727H174.038V22.6364H174.152C174.357 22.1932 174.667 21.8371 175.084 21.5682C175.5 21.2955 176.038 21.1591 176.697 21.1591C177.288 21.1591 177.805 21.2803 178.249 21.5227C178.692 21.7614 179.036 22.125 179.283 22.6136C179.529 23.0985 179.652 23.7121 179.652 24.4545V30H178.311V24.5455C178.311 23.8598 178.133 23.3258 177.777 22.9432C177.421 22.5568 176.932 22.3636 176.311 22.3636C175.883 22.3636 175.5 22.4564 175.163 22.642C174.83 22.8277 174.567 23.0985 174.374 23.4545C174.18 23.8106 174.084 24.2424 174.084 24.75ZM187.08 25.0909C187.08 23.6591 187.265 22.3428 187.636 21.142C188.011 19.9375 188.545 18.8295 189.239 17.8182H190.42C190.148 18.1932 189.892 18.6553 189.653 19.2045C189.419 19.75 189.212 20.3504 189.034 21.0057C188.856 21.6572 188.716 22.3314 188.614 23.0284C188.515 23.7254 188.466 24.4129 188.466 25.0909C188.466 25.9924 188.553 26.9072 188.727 27.8352C188.902 28.7633 189.136 29.625 189.432 30.4205C189.727 31.2159 190.057 31.8636 190.42 32.3636H189.239C188.545 31.3523 188.011 30.2462 187.636 29.0455C187.265 27.8409 187.08 26.5227 187.08 25.0909ZM195.757 30.1818C194.969 30.1818 194.278 29.9943 193.683 29.6193C193.092 29.2443 192.63 28.7197 192.297 28.0455C191.967 27.3712 191.803 26.5833 191.803 25.6818C191.803 24.7727 191.967 23.9792 192.297 23.3011C192.63 22.6231 193.092 22.0966 193.683 21.7216C194.278 21.3466 194.969 21.1591 195.757 21.1591C196.545 21.1591 197.234 21.3466 197.825 21.7216C198.42 22.0966 198.882 22.6231 199.212 23.3011C199.545 23.9792 199.712 24.7727 199.712 25.6818C199.712 26.5833 199.545 27.3712 199.212 28.0455C198.882 28.7197 198.42 29.2443 197.825 29.6193C197.234 29.9943 196.545 30.1818 195.757 30.1818ZM195.757 28.9773C196.356 28.9773 196.848 28.8239 197.234 28.517C197.621 28.2102 197.907 27.8068 198.092 27.3068C198.278 26.8068 198.371 26.2652 198.371 25.6818C198.371 25.0985 198.278 24.5549 198.092 24.0511C197.907 23.5473 197.621 23.1402 197.234 22.8295C196.848 22.5189 196.356 22.3636 195.757 22.3636C195.159 22.3636 194.666 22.5189 194.28 22.8295C193.893 23.1402 193.607 23.5473 193.422 24.0511C193.236 24.5549 193.143 25.0985 193.143 25.6818C193.143 26.2652 193.236 26.8068 193.422 27.3068C193.607 27.8068 193.893 28.2102 194.28 28.517C194.666 28.8239 195.159 28.9773 195.757 28.9773ZM201.759 33.2727V21.2727H203.054V22.6591H203.213C203.312 22.5076 203.448 22.3144 203.622 22.0795C203.8 21.8409 204.054 21.6288 204.384 21.4432C204.717 21.2538 205.168 21.1591 205.736 21.1591C206.471 21.1591 207.118 21.3428 207.679 21.7102C208.24 22.0777 208.677 22.5985 208.991 23.2727C209.306 23.947 209.463 24.7424 209.463 25.6591C209.463 26.5833 209.306 27.3845 208.991 28.0625C208.677 28.7367 208.241 29.2595 207.685 29.6307C207.128 29.9981 206.486 30.1818 205.759 30.1818C205.198 30.1818 204.749 30.089 204.412 29.9034C204.075 29.714 203.815 29.5 203.634 29.2614C203.452 29.0189 203.312 28.8182 203.213 28.6591H203.099V33.2727H201.759ZM203.077 25.6364C203.077 26.2955 203.173 26.8769 203.366 27.3807C203.56 27.8807 203.842 28.2727 204.213 28.5568C204.584 28.8371 205.039 28.9773 205.577 28.9773C206.137 28.9773 206.605 28.8295 206.98 28.5341C207.359 28.2348 207.643 27.8333 207.832 27.3295C208.026 26.822 208.122 26.2576 208.122 25.6364C208.122 25.0227 208.027 24.4697 207.838 23.9773C207.652 23.4811 207.37 23.089 206.991 22.8011C206.616 22.5095 206.145 22.3636 205.577 22.3636C205.031 22.3636 204.573 22.5019 204.202 22.7784C203.83 23.0511 203.55 23.4337 203.361 23.9261C203.171 24.4148 203.077 24.9848 203.077 25.6364ZM215.304 21.2727V22.4091H210.781V21.2727H215.304ZM212.099 19.1818H213.44V27.5C213.44 27.8788 213.495 28.1629 213.605 28.3523C213.719 28.5379 213.863 28.6629 214.037 28.7273C214.215 28.7879 214.402 28.8182 214.599 28.8182C214.747 28.8182 214.868 28.8106 214.963 28.7955C215.058 28.7765 215.134 28.7614 215.19 28.75L215.463 29.9545C215.372 29.9886 215.245 30.0227 215.082 30.0568C214.92 30.0947 214.713 30.1136 214.463 30.1136C214.084 30.1136 213.713 30.0322 213.349 29.8693C212.99 29.7064 212.69 29.4583 212.452 29.125C212.217 28.7917 212.099 28.3712 212.099 27.8636V19.1818ZM217.321 30V21.2727H218.662V30H217.321ZM218.003 19.8182C217.741 19.8182 217.516 19.7292 217.327 19.5511C217.141 19.3731 217.048 19.1591 217.048 18.9091C217.048 18.6591 217.141 18.4451 217.327 18.267C217.516 18.089 217.741 18 218.003 18C218.264 18 218.488 18.089 218.673 18.267C218.863 18.4451 218.957 18.6591 218.957 18.9091C218.957 19.1591 218.863 19.3731 218.673 19.5511C218.488 19.7292 218.264 19.8182 218.003 19.8182ZM224.663 30.1818C223.875 30.1818 223.184 29.9943 222.589 29.6193C221.999 29.2443 221.536 28.7197 221.203 28.0455C220.874 27.3712 220.709 26.5833 220.709 25.6818C220.709 24.7727 220.874 23.9792 221.203 23.3011C221.536 22.6231 221.999 22.0966 222.589 21.7216C223.184 21.3466 223.875 21.1591 224.663 21.1591C225.451 21.1591 226.141 21.3466 226.732 21.7216C227.326 22.0966 227.788 22.6231 228.118 23.3011C228.451 23.9792 228.618 24.7727 228.618 25.6818C228.618 26.5833 228.451 27.3712 228.118 28.0455C227.788 28.7197 227.326 29.2443 226.732 29.6193C226.141 29.9943 225.451 30.1818 224.663 30.1818ZM224.663 28.9773C225.262 28.9773 225.754 28.8239 226.141 28.517C226.527 28.2102 226.813 27.8068 226.999 27.3068C227.184 26.8068 227.277 26.2652 227.277 25.6818C227.277 25.0985 227.184 24.5549 226.999 24.0511C226.813 23.5473 226.527 23.1402 226.141 22.8295C225.754 22.5189 225.262 22.3636 224.663 22.3636C224.065 22.3636 223.572 22.5189 223.186 22.8295C222.8 23.1402 222.514 23.5473 222.328 24.0511C222.143 24.5549 222.05 25.0985 222.05 25.6818C222.05 26.2652 222.143 26.8068 222.328 27.3068C222.514 27.8068 222.8 28.2102 223.186 28.517C223.572 28.8239 224.065 28.9773 224.663 28.9773ZM232.006 24.75V30H230.665V21.2727H231.96V22.6364H232.074C232.278 22.1932 232.589 21.8371 233.006 21.5682C233.422 21.2955 233.96 21.1591 234.619 21.1591C235.21 21.1591 235.727 21.2803 236.17 21.5227C236.614 21.7614 236.958 22.125 237.205 22.6136C237.451 23.0985 237.574 23.7121 237.574 24.4545V30H236.233V24.5455C236.233 23.8598 236.055 23.3258 235.699 22.9432C235.343 22.5568 234.854 22.3636 234.233 22.3636C233.805 22.3636 233.422 22.4564 233.085 22.642C232.752 22.8277 232.489 23.0985 232.295 23.4545C232.102 23.8106 232.006 24.2424 232.006 24.75ZM242.592 30.2045C242.039 30.2045 241.537 30.1004 241.087 29.892C240.636 29.6799 240.278 29.375 240.013 28.9773C239.748 28.5758 239.615 28.0909 239.615 27.5227C239.615 27.0227 239.714 26.6174 239.911 26.3068C240.107 25.9924 240.371 25.7462 240.7 25.5682C241.03 25.3902 241.393 25.2576 241.791 25.1705C242.193 25.0795 242.596 25.0076 243.001 24.9545C243.532 24.8864 243.962 24.8352 244.291 24.8011C244.625 24.7633 244.867 24.7008 245.018 24.6136C245.174 24.5265 245.251 24.375 245.251 24.1591V24.1136C245.251 23.553 245.098 23.1174 244.791 22.8068C244.488 22.4962 244.028 22.3409 243.411 22.3409C242.77 22.3409 242.268 22.4811 241.905 22.7614C241.541 23.0417 241.286 23.3409 241.138 23.6591L239.865 23.2045C240.092 22.6742 240.395 22.2614 240.774 21.9659C241.157 21.6667 241.573 21.4583 242.024 21.3409C242.479 21.2197 242.926 21.1591 243.365 21.1591C243.645 21.1591 243.967 21.1932 244.331 21.2614C244.698 21.3258 245.053 21.4602 245.393 21.6648C245.738 21.8693 246.024 22.178 246.251 22.5909C246.479 23.0038 246.592 23.5568 246.592 24.25V30H245.251V28.8182H245.183C245.092 29.0076 244.941 29.2102 244.729 29.4261C244.517 29.642 244.234 29.8258 243.882 29.9773C243.53 30.1288 243.1 30.2045 242.592 30.2045ZM242.797 29C243.327 29 243.774 28.8958 244.138 28.6875C244.505 28.4792 244.782 28.2102 244.967 27.8807C245.157 27.5511 245.251 27.2045 245.251 26.8409V25.6136C245.195 25.6818 245.07 25.7443 244.876 25.8011C244.687 25.8542 244.467 25.9015 244.217 25.9432C243.971 25.9811 243.731 26.0152 243.496 26.0455C243.265 26.072 243.077 26.0947 242.933 26.1136C242.585 26.1591 242.259 26.233 241.956 26.3352C241.657 26.4337 241.414 26.5833 241.229 26.7841C241.047 26.9811 240.956 27.25 240.956 27.5909C240.956 28.0568 241.128 28.4091 241.473 28.6477C241.821 28.8826 242.263 29 242.797 29ZM250.381 18.3636V30H249.04V18.3636H250.381ZM255.7 25.0909C255.7 26.5227 255.513 27.8409 255.138 29.0455C254.767 30.2462 254.234 31.3523 253.541 32.3636H252.359C252.632 31.9886 252.886 31.5265 253.121 30.9773C253.359 30.4318 253.568 29.8333 253.746 29.1818C253.924 28.5265 254.062 27.8504 254.161 27.1534C254.263 26.4527 254.314 25.7652 254.314 25.0909C254.314 24.1894 254.227 23.2746 254.053 22.3466C253.878 21.4186 253.643 20.5568 253.348 19.7614C253.053 18.9659 252.723 18.3182 252.359 17.8182H253.541C254.234 18.8295 254.767 19.9375 255.138 21.142C255.513 22.3428 255.7 23.6591 255.7 25.0909Z" fill="#7D7F86"/>
</g>
<defs>
<filter id="filter0_i_1329_4186" x="0" y="0" width="624" height="50" filterUnits="userSpaceOnUse" color-interpolation-filters="sRGB">
<feFlood flood-opacity="0" result="BackgroundImageFix"/>
<feBlend mode="normal" in="SourceGraphic" in2="BackgroundImageFix" result="shape"/>
<feColorMatrix in="SourceAlpha" type="matrix" values="0 0 0 0 0 0 0 0 0 0 0 0 0 0 0 0 0 0 127 0" result="hardAlpha"/>
<feOffset dy="2"/>
<feGaussianBlur stdDeviation="2"/>
<feComposite in2="hardAlpha" operator="arithmetic" k2="-1" k3="1"/>
<feColorMatrix type="matrix" values="0 0 0 0 0 0 0 0 0 0 0 0 0 0 0 0 0 0 0.2 0"/>
<feBlend mode="normal" in2="shape" result="effect1_innerShadow_1329_4186"/>
</filter>
</defs>
</svg>
